HIERARCHY
ROOT Hips
{
    OFFSET 0.000000 0.000000 0.000000
    CHANNELS 6 Xposition Yposition Zposition Zrotation Yrotation Xrotation
    JOINT LeftUpLeg
    {
        OFFSET 9.147710 -10.042348 4.006903
        CHANNELS 3 Zrotation Yrotation Xrotation
        JOINT LeftLeg
        {
            OFFSET 13.237925 -36.370876 0.000000
            CHANNELS 3 Zrotation Yrotation Xrotation
            JOINT LeftFoot
            {
                OFFSET 15.478299 -42.526321 0.000000
                CHANNELS 3 Zrotation Yrotation Xrotation
                JOINT LeftToeBase
                {
                    OFFSET 0.961354 -2.641241 11.745206
                    CHANNELS 3 Zrotation Yrotation Xrotation
                    End Site
                    {
                        OFFSET 0.000000 0.000000 0.000000
                    }
                }
            }
        }
    }
    JOINT RightUpLeg
    {
        OFFSET -8.794597 -10.042348 4.006903
        CHANNELS 3 Zrotation Yrotation Xrotation
        JOINT RightLeg
        {
            OFFSET -13.165168 -36.171009 0.000000
            CHANNELS 3 Zrotation Yrotation Xrotation
            JOINT RightFoot
            {
                OFFSET -15.736475 -43.235710 0.000000
                CHANNELS 3 Zrotation Yrotation Xrotation
                JOINT RightToeBase
                {
                    OFFSET -1.281674 -3.521429 11.517907
                    CHANNELS 3 Zrotation Yrotation Xrotation
                    End Site
                    {
                        OFFSET 0.000000 0.000000 0.000000
                    }
                }
            }
        }
    }
    JOINT Spine
    {
        OFFSET 0.124346 10.812696 0.404196
        CHANNELS 3 Zrotation Yrotation Xrotation
        JOINT Spine1
        {
            OFFSET 0.098213 10.753993 0.656782
            CHANNELS 3 Zrotation Yrotation Xrotation
            JOINT Neck1
            {
                OFFSET -0.611909 10.361199 0.286002
                CHANNELS 3 Zrotation Yrotation Xrotation
                JOINT Head
                {
                    OFFSET 0.372587 9.864154 -2.850704
                    CHANNELS 3 Zrotation Yrotation Xrotation
                    End Site
                    {
                        OFFSET 0.000000 0.000000 0.000000
                    }
                }
            }
            JOINT LeftShoulder
            {
                OFFSET 0.000000 0.000000 0.000000
                CHANNELS 3 Zrotation Yrotation Xrotation
                JOINT LeftArm
                {
                    OFFSET 16.202759 7.646469 0.909369
                    CHANNELS 3 Zrotation Yrotation Xrotation
                    JOINT LeftForeArm
                    {
                        OFFSET 30.682507 -0.000000 0.000000
                        CHANNELS 3 Zrotation Yrotation Xrotation
                        JOINT LeftHand
                        {
                            OFFSET 18.370264 -0.000000 0.000000
                            CHANNELS 3 Zrotation Yrotation Xrotation
                            End Site
                            {
                                OFFSET 0.000000 0.000000 0.000000
                            }
                        }
                    }
                }
            }
            JOINT RightShoulder
            {
                OFFSET 0.000000 0.000000 0.000000
                CHANNELS 3 Zrotation Yrotation Xrotation
                JOINT RightArm
                {
                    OFFSET -16.179277 6.970157 2.593997
                    CHANNELS 3 Zrotation Yrotation Xrotation
                    JOINT RightForeArm
                    {
                        OFFSET -30.131502 -0.000000 0.000000
                        CHANNELS 3 Zrotation Yrotation Xrotation
                        JOINT RightHand
                        {
                            OFFSET -18.239765 -0.000000 0.000000
                            CHANNELS 3 Zrotation Yrotation Xrotation
                            End Site
                            {
                                OFFSET 0.000000 0.000000 0.000000
                            }
                        }
                    }
                }
            }
        }
    }
}
MOTION
Frames: 6
Frame Time: 0.016667
-4.022200 93.345398 5.193412 -4.024401 -5.911502 14.469201 -14.254802 -16.406103 -16.728302 2.005902 8.878408 25.415712 0.465199 11.046702 -21.230202 0.022200 -0.962300 -2.645100 20.024799 20.162901 -17.065800 -1.919600 -8.696502 24.850603 -0.373800 -6.710101 -15.929099 -0.047500 1.407100 -3.869700 4.595689 -1.338609 -17.600519 -0.077200 -0.592000 1.519099 -3.273409 -19.649471 13.957196 2.457699 -6.023201 11.459597 0.000000 0.000000 0.000000 -86.329803 7.832602 38.421997 15.564999 -24.927299 -3.460599 0.000000 0.000000 -9.367399 0.000000 0.000000 0.000000 87.897804 -7.288102 38.384705 -17.281301 27.227095 -4.215199 0.000000 0.000000 7.507699 
-4.041955 93.351036 5.187204 -3.924004 -5.853301 14.529206 -14.303906 -16.491314 -16.791208 1.998900 8.863804 25.370102 0.440700 11.081905 -21.023413 0.018700 -0.883000 -2.427002 19.910912 20.239216 -17.163612 -1.929602 -8.717910 24.916801 -0.368199 -6.834000 -15.968911 -0.041400 1.313200 -3.611100 4.466123 -1.400200 -17.628540 0.070500 -0.606200 1.333700 -3.426292 -19.052734 14.125451 2.290400 -5.846800 11.627499 0.000000 0.000000 0.000000 -86.389999 8.082507 38.380798 15.630113 -25.016504 -3.488003 0.000000 0.000000 -9.214200 0.000000 0.000000 0.000000 87.819397 -7.648798 38.460899 -17.329700 27.290308 -4.237401 0.000000 0.000000 7.586600 
-4.065097 93.339745 5.187768 -3.897200 -5.982401 14.622508 -14.309498 -16.440905 -16.881498 1.996001 8.857704 25.351299 0.443100 11.111308 -21.078609 0.021500 -0.947200 -2.603602 19.828003 20.542408 -17.232605 -1.936000 -8.731399 24.958805 -0.350000 -7.018505 -15.902307 -0.047900 1.412400 -3.884302 4.379646 -1.295362 -17.650976 0.167900 -0.574200 1.371601 -3.217581 -17.983850 13.905091 2.234201 -5.534501 11.919906 0.000000 0.000000 0.000000 -86.421204 8.031503 38.294098 15.718499 -25.137508 -3.525500 0.000000 0.000000 -8.933900 0.000000 0.000000 0.000000 87.811699 -7.652709 38.372707 -17.413906 27.400198 -4.276099 0.000000 0.000000 7.838297 
-4.056630 93.348221 5.214297 -3.897502 -6.055699 14.651101 -14.335905 -16.457909 -16.856108 1.998600 8.863202 25.368504 0.455800 11.163000 -21.259897 0.022500 -0.968900 -2.663401 19.798502 20.634001 -17.239004 -1.935301 -8.730100 24.954502 -0.352100 -7.009698 -15.922093 -0.037900 1.256300 -3.454202 4.400213 -1.162190 -17.675812 0.183400 -0.537900 1.375500 -3.044281 -16.882105 13.933895 2.311101 -5.221002 11.919096 0.000000 0.000000 0.000000 -86.460701 8.072005 38.340706 15.796802 -25.244301 -3.558801 0.000000 0.000000 -8.846804 0.000000 0.000000 0.000000 87.756386 -7.710798 38.466000 -17.626209 27.675917 -4.374204 0.000000 0.000000 7.600400 
-4.056066 93.345955 5.190026 -3.938101 -6.001203 14.703307 -14.241508 -16.579300 -16.938408 2.000900 8.867902 25.383104 0.446101 11.230602 -21.235107 0.022100 -0.959300 -2.636801 19.830700 20.738802 -17.238806 -1.928100 -8.714700 24.906900 -0.341100 -7.164104 -15.923500 -0.041500 1.315400 -3.617200 4.473772 -1.106859 -17.702330 0.195100 -0.525800 1.217401 -3.026375 -15.999939 14.121964 2.288601 -4.966602 11.921107 0.000000 0.000000 0.000000 -86.461510 8.172491 38.685108 15.794797 -25.241602 -3.558002 0.000000 0.000000 -8.970203 0.000000 0.000000 0.000000 87.696907 -7.858101 38.559303 -17.641104 27.695215 -4.381202 0.000000 0.000000 7.480903 
-4.045341 93.337494 5.234052 -3.963997 -6.145797 14.712694 -14.257999 -16.607000 -16.851400 1.993502 8.852505 25.335016 0.434301 11.364398 -21.260998 0.017100 -0.844901 -2.322301 19.826305 20.853806 -17.200607 -1.928000 -8.714402 24.906006 -0.350400 -7.103700 -15.987907 -0.041200 1.309600 -3.601198 4.513945 -0.925753 -17.711248 0.177400 -0.476300 1.261701 -2.844794 -15.017887 14.148831 2.406600 -4.687002 11.775899 0.000000 0.000000 0.000000 -86.490921 8.093705 38.769112 15.825897 -25.284002 -3.571302 0.000000 0.000000 -8.954400 0.000000 0.000000 0.000000 87.689796 -7.822594 38.400490 -17.557713 27.587212 -4.342501 0.000000 0.000000 7.777303 
